HIERARCHY
ROOT Hips
{
    OFFSET   0.000000   0.000000   0.000000
    CHANNELS 6 Xposition Yposition Zposition Zrotation Xrotation Yrotation
    JOINT Chest
    {
        OFFSET   0.000000   8.007230   0.000000
        CHANNELS 3 Zrotation Xrotation Yrotation
        JOINT Chest2
        {
            OFFSET   0.000000  22.077100   0.000000
            CHANNELS 3 Zrotation Xrotation Yrotation
            JOINT Neck
            {
                OFFSET   0.000000  23.255100   0.000000
                CHANNELS 3 Zrotation Xrotation Yrotation
                JOINT Head
                {
                    OFFSET   0.000000  14.370100   1.956600
                    CHANNELS 3 Zrotation Xrotation Yrotation
                    End Site
                    {
                        OFFSET   0.000000  19.566000   0.000000
                    }
                }
            }
            JOINT LeftCollar
            {
                OFFSET   3.911900  19.017000  -0.467063
                CHANNELS 3 Zrotation Xrotation Yrotation
                JOINT LeftShoulder
                {
                    OFFSET  10.383700   0.000000   0.000000
                    CHANNELS 3 Zrotation Xrotation Yrotation
                    JOINT LeftElbow
                    {
                        OFFSET  26.662100   0.001193   0.000980
                        CHANNELS 3 Zrotation Xrotation Yrotation
                        JOINT LeftWrist
                        {
                            OFFSET  28.869000  -0.000059  -0.000082
                            CHANNELS 3 Zrotation Xrotation Yrotation
                            JOINT LeftFinger0
                            {
                                OFFSET   2.044650  -2.323450   3.252850
                                CHANNELS 3 Zrotation Xrotation Yrotation
                                JOINT LeftFinger01
                                {
                                    OFFSET   3.088130   0.000000   0.000000
                                    CHANNELS 3 Zrotation Xrotation Yrotation
                                    JOINT LeftFinger02
                                    {
                                        OFFSET   2.639460   0.000000   0.000000
                                        CHANNELS 3 Zrotation Xrotation Yrotation
                                        End Site
                                        {
                                            OFFSET   2.582190   0.000000   0.000000
                                        }
                                    }
                                }
                            }
                            JOINT LeftFinger1
                            {
                                OFFSET   8.364480   0.000000   3.252850
                                CHANNELS 3 Zrotation Xrotation Yrotation
                                JOINT LeftFinger11
                                {
                                    OFFSET   4.646930   0.000000   0.000000
                                    CHANNELS 3 Zrotation Xrotation Yrotation
                                    JOINT LeftFinger12
                                    {
                                        OFFSET   2.323470   0.000000   0.000000
                                        CHANNELS 3 Zrotation Xrotation Yrotation
                                        End Site
                                        {
                                            OFFSET   2.273050   0.000000   0.000000
                                        }
                                    }
                                }
                            }
                            JOINT LeftFinger2
                            {
                                OFFSET   8.364490   0.000016   1.078090
                                CHANNELS 3 Zrotation Xrotation Yrotation
                                JOINT LeftFinger21
                                {
                                    OFFSET   5.111610   0.000000   0.000000
                                    CHANNELS 3 Zrotation Xrotation Yrotation
                                    JOINT LeftFinger22
                                    {
                                        OFFSET   2.788150   0.000016   0.000000
                                        CHANNELS 3 Zrotation Xrotation Yrotation
                                        End Site
                                        {
                                            OFFSET   2.727660   0.000000   0.000000
                                        }
                                    }
                                }
                            }
                            JOINT LeftFinger3
                            {
                                OFFSET   7.899780   0.000015  -1.078090
                                CHANNELS 3 Zrotation Xrotation Yrotation
                                JOINT LeftFinger31
                                {
                                    OFFSET   4.646930   0.000000   0.000000
                                    CHANNELS 3 Zrotation Xrotation Yrotation
                                    JOINT LeftFinger32
                                    {
                                        OFFSET   2.323470   0.000000   0.000000
                                        CHANNELS 3 Zrotation Xrotation Yrotation
                                        End Site
                                        {
                                            OFFSET   2.273050   0.000000   0.000000
                                        }
                                    }
                                }
                            }
                            JOINT LeftFinger4
                            {
                                OFFSET   7.435090   0.000000  -3.252850
                                CHANNELS 3 Zrotation Xrotation Yrotation
                                JOINT LeftFinger41
                                {
                                    OFFSET   3.717550   0.000000   0.000000
                                    CHANNELS 3 Zrotation Xrotation Yrotation
                                    JOINT LeftFinger42
                                    {
                                        OFFSET   1.858770   0.000000   0.000000
                                        CHANNELS 3 Zrotation Xrotation Yrotation
                                        End Site
                                        {
                                            OFFSET   1.818440   0.000000   0.000000
                                        }
                                    }
                                }
                            }
                        }
                    }
                }
            }
            JOINT RightCollar
            {
                OFFSET  -3.911910  19.017000  -0.467062
                CHANNELS 3 Zrotation Xrotation Yrotation
                JOINT RightShoulder
                {
                    OFFSET -10.383700   0.000014   0.000000
                    CHANNELS 3 Zrotation Xrotation Yrotation
                    JOINT RightElbow
                    {
                        OFFSET -26.662100   0.001225   0.001091
                        CHANNELS 3 Zrotation Xrotation Yrotation
                        JOINT RightWrist
                        {
                            OFFSET -28.869000  -0.000020  -0.000085
                            CHANNELS 3 Zrotation Xrotation Yrotation
                            JOINT RightFinger0
                            {
                                OFFSET  -2.044650  -2.323490   3.252850
                                CHANNELS 3 Zrotation Xrotation Yrotation
                                JOINT RightFinger01
                                {
                                    OFFSET  -3.088130   0.000000   0.000000
                                    CHANNELS 3 Zrotation Xrotation Yrotation
                                    JOINT RightFinger02
                                    {
                                        OFFSET  -2.639460   0.000000   0.000000
                                        CHANNELS 3 Zrotation Xrotation Yrotation
                                        End Site
                                        {
                                            OFFSET  -2.582190   0.000000   0.000000
                                        }
                                    }
                                }
                            }
                            JOINT RightFinger1
                            {
                                OFFSET  -8.364480   0.000000   3.252850
                                CHANNELS 3 Zrotation Xrotation Yrotation
                                JOINT RightFinger11
                                {
                                    OFFSET  -4.646930   0.000000   0.000000
                                    CHANNELS 3 Zrotation Xrotation Yrotation
                                    JOINT RightFinger12
                                    {
                                        OFFSET  -2.323470   0.000000   0.000000
                                        CHANNELS 3 Zrotation Xrotation Yrotation
                                        End Site
                                        {
                                            OFFSET  -2.273050   0.000000   0.000000
                                        }
                                    }
                                }
                            }
                            JOINT RightFinger2
                            {
                                OFFSET  -8.364480   0.000000   1.078090
                                CHANNELS 3 Zrotation Xrotation Yrotation
                                JOINT RightFinger21
                                {
                                    OFFSET  -5.111620   0.000000   0.000000
                                    CHANNELS 3 Zrotation Xrotation Yrotation
                                    JOINT RightFinger22
                                    {
                                        OFFSET  -2.788160   0.000000   0.000000
                                        CHANNELS 3 Zrotation Xrotation Yrotation
                                        End Site
                                        {
                                            OFFSET  -2.727660   0.000000   0.000000
                                        }
                                    }
                                }
                            }
                            JOINT RightFinger3
                            {
                                OFFSET  -7.899780   0.000000  -1.078090
                                CHANNELS 3 Zrotation Xrotation Yrotation
                                JOINT RightFinger31
                                {
                                    OFFSET  -4.646930   0.000000   0.000000
                                    CHANNELS 3 Zrotation Xrotation Yrotation
                                    JOINT RightFinger32
                                    {
                                        OFFSET  -2.323470   0.000000   0.000000
                                        CHANNELS 3 Zrotation Xrotation Yrotation
                                        End Site
                                        {
                                            OFFSET  -2.273050   0.000000   0.000000
                                        }
                                    }
                                }
                            }
                            JOINT RightFinger4
                            {
                                OFFSET  -7.435090   0.000000  -3.252850
                                CHANNELS 3 Zrotation Xrotation Yrotation
                                JOINT RightFinger41
                                {
                                    OFFSET  -3.717550   0.000000   0.000000
                                    CHANNELS 3 Zrotation Xrotation Yrotation
                                    JOINT RightFinger42
                                    {
                                        OFFSET  -1.858760   0.000000   0.000000
                                        CHANNELS 3 Zrotation Xrotation Yrotation
                                        End Site
                                        {
                                            OFFSET  -1.818440   0.000000   0.000000
                                        }
                                    }
                                }
                            }
                        }
                    }
                }
            }
        }
    }
    JOINT LeftHip
    {
        OFFSET   9.783030   0.000000   0.000000
        CHANNELS 3 Zrotation Xrotation Yrotation
        JOINT LeftKnee
        {
            OFFSET   0.000063 -41.789100   0.000608
            CHANNELS 3 Zrotation Xrotation Yrotation
            JOINT LeftAnkle
            {
                OFFSET   0.000048 -41.133200  -0.000184
                CHANNELS 3 Zrotation Xrotation Yrotation
                JOINT LeftToe
                {
                    OFFSET   0.000000  -6.358960  14.674500
                    CHANNELS 3 Zrotation Xrotation Yrotation
                    End Site
                    {
                        OFFSET   0.000000   0.000000   3.913200
                    }
                }
            }
        }
    }
    JOINT RightHip
    {
        OFFSET  -9.783030   0.000000   0.000000
        CHANNELS 3 Zrotation Xrotation Yrotation
        JOINT RightKnee
        {
            OFFSET   0.000071 -41.789100   0.001239
            CHANNELS 3 Zrotation Xrotation Yrotation
            JOINT RightAnkle
            {
                OFFSET   0.000037 -41.133200  -0.000166
                CHANNELS 3 Zrotation Xrotation Yrotation
                JOINT RightToe
                {
                    OFFSET   0.000000  -6.358960  14.674500
                    CHANNELS 3 Zrotation Xrotation Yrotation
                    End Site
                    {
                        OFFSET   0.000000   0.000000   3.913200
                    }
                }
            }
        }
    }
}
MOTION
Frames: 4
Frame Time:   0.016667
  0.162839  89.542500   2.162590  -0.835544  -9.966080   2.986460   0.743226   6.481400   2.485550   1.212530  12.988800   4.933710   0.648916  -1.636390   0.018944   1.074240  -3.316940 -11.423000  -3.195340   0.643149   1.858180 -42.953100   2.133500 -62.056900   5.850000 -21.566100 -120.163000 -13.257300 -71.945600  10.654700  46.246500  32.580000 -69.251100   5.109390   0.003729  -0.000243   7.554690   0.001864  -0.002500 -88.996100   5.006720  -0.087359 -81.717100   0.003380  -0.001969 -61.287800   0.006870  -0.000668 -89.000000   0.003882   0.001986 -96.888700   0.002604   0.003284 -72.666500   0.000000   0.001550 -87.807400  -4.985480   0.189134 -87.815600   0.000504   0.004184 -65.861700   0.001338   0.004306 -32.270300 -12.646400  19.123200 -51.613300   0.003007   0.001439 -34.374400   0.000542  -0.001633   8.549500   2.359390   7.615440  63.746700  26.262800   2.238080  -2.205390  -3.992090  16.521400 -11.701900 -13.933000  -2.626540 -38.364100  30.573300  61.460500  30.840900   0.003429  -0.001937  10.420500   0.000075  -0.002152  29.273700   9.817250  16.917800  25.148600  -0.010363   0.004472  17.604100  -0.000278   0.001698  28.237000   5.261350   9.669400  38.849600  -0.003804   0.000079  25.873800  -0.002853   0.000928  27.553000   1.846200   3.532130  29.784400  -0.004557   0.003741  19.836400   0.000794   0.000628  32.477900   0.791781   1.233690  48.729700  -0.001064  -0.002954  32.454000   0.002752  -0.000038   1.436540  11.543700   4.379350   1.087830   0.095776   8.259360  -2.366020  -2.411820   0.865334   0.000000   0.000000  -0.000000   2.189460  13.046300  -1.360670   0.794854   0.895364 -12.170000  -1.243780  -5.724050  -3.747770  -0.000000   0.000000  -0.000000
  0.163058  89.542900   2.152040  -0.837552  -9.967480   2.978660   0.743369   6.480980   2.485720   1.212810  12.988000   4.934040   0.648058  -1.660340   0.018909   1.069950  -3.365630 -11.407200  -3.192930   0.636635   1.859650 -42.897500   2.144400 -62.062400   5.877630 -21.516700 -120.123000 -13.175600 -71.942900  10.783800  46.252500  32.576900 -69.247100   5.133510   0.003804  -0.000240   7.566750   0.001917  -0.002530 -88.996100   5.006670  -0.087357 -81.692700   0.003378  -0.001968 -61.269500   0.006915  -0.000630 -89.000000   0.003867   0.001953 -96.888700   0.002572   0.003334 -72.666500   0.000000   0.001537 -87.811700  -4.985570   0.188341 -87.819800   0.000543   0.004178 -65.864900   0.001403   0.004356 -32.297200 -12.647600  19.106800 -51.651100   0.003001   0.001449 -34.399600   0.000540  -0.001606   8.554230   2.357750   7.615660  63.752700  26.251300   2.225960  -2.207690  -3.988080  16.527800 -11.706900 -13.948800  -2.638440 -38.343000  30.568400  61.470800  30.864900   0.003425  -0.001951  10.432500   0.000147  -0.002119  29.296900   9.809050  16.889700  25.164500  -0.010330   0.004424  17.615200  -0.000259   0.001705  28.236900   5.261510   9.669130  38.874900  -0.003735   0.000000  25.890700  -0.002822   0.000907  27.553900   1.828500   3.498380  29.792400  -0.004543   0.003683  19.841700   0.000809   0.000625  32.485600   0.791399   1.232900  48.741300  -0.001129  -0.002952  32.461700   0.002780   0.000000   1.439440  11.507900   4.377170   1.087800   0.159783   8.258420  -2.369300  -2.440920   0.870200  -0.000000   0.000000   0.000000   2.188450  13.046600  -1.346110   0.793654   0.882843 -12.182300  -1.242830  -5.716360  -3.741110  -0.000000   0.000000   0.000000
  0.163257  89.544000   2.141290  -0.840201  -9.963720   2.968770   0.743233   6.480680   2.485860   1.212520  12.987300   4.934360   0.647089  -1.686810   0.018887   1.066290  -3.419480 -11.387000  -3.193030   0.620421   1.851610 -42.813200   2.172610 -62.055800   5.905290 -21.500700 -120.082000 -12.990600 -71.901200  11.015400  46.290400  32.599900 -69.246600   5.181380   0.003874  -0.000279   7.590670   0.001970  -0.002561 -88.996100   5.006620  -0.087354 -81.664500   0.003368  -0.001970 -61.248400   0.006961  -0.000594 -89.000000   0.003865   0.001926 -96.888900   0.002548   0.003371 -72.666600  -0.000026   0.001517 -87.833800  -4.985660   0.186485 -87.841800   0.000583   0.004157 -65.881300   0.001474   0.004389 -32.294300 -12.647500  19.108600 -51.647000   0.003005   0.001478 -34.396800   0.000542  -0.001573   8.557490   2.352830   7.615550  63.756700  26.257400   2.215540  -2.202340  -3.992740  16.526800 -11.688200 -13.938800  -2.643410 -38.330300  30.573100  61.495200  30.880600   0.003430  -0.001949  10.440300   0.000218  -0.002088  29.296600   9.799890  16.876200  25.161600  -0.010297   0.004369  17.613200  -0.000245   0.001717  28.236500   5.261590   9.672410  38.849300  -0.003668  -0.000069  25.873700  -0.002800   0.000881  27.552900   1.825960   3.494400  29.779800  -0.004532   0.003629  19.833300   0.000820   0.000620  32.481100   0.791035   1.234220  48.734500  -0.001196  -0.002951  32.457200   0.002808   0.000040   1.439050  11.512100   4.378910   1.087780   0.141029   8.258750  -2.367400  -2.432320   0.875981  -0.000000   0.000000   0.000000   2.185720  13.041300  -1.335870   0.791957   0.876957 -12.188100  -1.241170  -5.711360  -3.735340  -0.000000   0.000000  -0.000000
  0.163456  89.545100   2.130590  -0.843373  -9.956870   2.956950   0.742974   6.480480   2.485940   1.212000  12.986900   4.934550   0.644790  -1.715240   0.018855   1.060040  -3.477260 -11.362800  -3.194680   0.608754   1.840400 -42.730500   2.193720 -62.039300   5.935110 -21.488300 -120.040000 -12.776400 -71.817800  11.289200  46.360900  32.629200 -69.240900   5.235890   0.003944  -0.000323   7.617920   0.002023  -0.002593 -88.996100   5.006570  -0.087353 -81.630300   0.003352  -0.001972 -61.222700   0.007006  -0.000557 -89.000000   0.003864   0.001897 -96.889000   0.002524   0.003406 -72.666700  -0.000063   0.001497 -87.849800  -4.985750   0.185402 -87.857800   0.000626   0.004133 -65.893300   0.001542   0.004421 -32.273800 -12.646500  19.120900 -51.618000   0.003011   0.001508 -34.377600   0.000544  -0.001539   8.559680   2.349220   7.615440  63.758500  26.265900   2.208690  -2.192730  -3.997490  16.521200 -11.659800 -13.918500  -2.644410 -38.327400  30.579200  61.514100  30.888300   0.003435  -0.001945  10.444100   0.000291  -0.002057  29.285100   9.793180  16.871800  25.151700  -0.010264   0.004313  17.606200  -0.000232   0.001730  28.235900   5.261610   9.678450  38.802200  -0.003602  -0.000136  25.842300  -0.002779   0.000853  27.551600   1.825600   3.493830  29.757300  -0.004523   0.003576  19.818400   0.000830   0.000615  32.471600   0.790840   1.237240  48.720400  -0.001264  -0.002949  32.447700   0.002837   0.000081   1.438180  11.518900   4.382540   1.087710   0.106561   8.259990  -2.363930  -2.414940   0.882732   0.000000   0.000000   0.000000   2.183030  13.032000  -1.327320   0.790093   0.870617 -12.189600  -1.239110  -5.704830  -3.729380  -0.000000   0.000000   0.000000
